<?xml version="1.0" standalone="no"?><!DOCTYPE svg PUBLIC "-//W3C//DTD SVG 1.1//EN" "http://www.w3.org/Graphics/SVG/1.1/DTD/svg11.dtd"><svg t="1631613821205" class="icon" viewBox="0 0 1024 1024" version="1.1" xmlns="http://www.w3.org/2000/svg" p-id="35719" xmlns:xlink="http://www.w3.org/1999/xlink" width="200" height="200"><defs><style type="text/css"></style></defs><path d="M175.67482553 878.02553191a31.37361702 31.37361702 0 0 1-30.27554042-37.90978723l50.61610212-223.79846808a30.79843404 30.79843404 0 0 1 6.79761703-12.91547234 30.01409362 30.01409362 0 0 1 6.9544851-11.45137022l490.78794894-490.94481702a31.37361702 31.37361702 0 0 1 44.02764255 0l178.0452766 178.0452766a31.37361702 31.37361702 0 0 1 0 43.97535319l-490.89252766 490.73565957a30.64156596 30.64156596 0 0 1-13.85668085 7.47737873 31.9488 31.9488 0 0 1-10.82389788 4.81062127L182.57702128 876.97974468a29.33433191 29.33433191 0 0 1-6.74532766 0.78434043z m41.30859575-72.26389787l132.50124255-30.06638298-102.5394383-102.85317446z m192.84316595-57.51829787l446.81259575-446.76030638L722.51697021 166.89021277l-446.70801702 446.8648851z" fill="#2c2c2c" p-id="35720"></path><path d="M420.12759149 661.07697021a22.27526809 22.27526809 0 0 1-15.68680851-37.96207659L724.66083404 302.84255319a22.22297872 22.22297872 0 1 1 31.37361702 31.37361702l-320.1677617 320.32462979a22.22297872 22.22297872 0 0 1-15.73909787 6.53617021z" fill="#2c2c2c" p-id="35721"></path></svg>